<?xml version="1.0" encoding="utf-8"?>
<!-- Generator: Adobe Illustrator 24.3.0, SVG Export Plug-In . SVG Version: 6.00 Build 0)  -->
<svg version="1.1" id="Layer_1" xmlns="http://www.w3.org/2000/svg" xmlns:xlink="http://www.w3.org/1999/xlink" x="0px" y="0px"
	 viewBox="0 0 512 512" style="enable-background:new 0 0 512 512;" xml:space="preserve">
<style type="text/css">
	.st0{fill:#BC2041;}
	.st1{fill:#757575;}
</style>
<g>
	<path class="st0" d="M484.8,369.6L412,258.4c-1.6-2.5-1.6-5.5-0.2-8.1L476,141.7c3-5-0.7-11.5-6.5-11.5h-47.8
		c-2.7,0-5.1,1.4-6.5,3.7l-67.8,116c-1.4,2.5-1.4,5.4,0.1,7.8l72.8,119.9c1.4,2.2,3.9,3.6,6.5,3.6h51.9
		C484.6,381.4,488.2,374.8,484.8,369.6z"/>
	<g>
		<path class="st0" d="M218.2,381.4h4.2c-0.7,0-1.4-0.1-2.1-0.4C219.6,381.3,218.9,381.4,218.2,381.4z"/>
		<path class="st0" d="M332.6,139.6l-56.4,236c-0.8,3.4-3.9,5.8-7.4,5.8h56.7c3.5,0,6.5-2.5,7.4-5.8v-236c0-0.5,0-0.8-0.1-1.3
			C332.8,138.8,332.8,139.2,332.6,139.6z"/>
		<path class="st1" d="M276.2,375.6l56.4-236c0.1-0.5,0.1-0.8,0.1-1.3c0.2-4.3-3-8.1-7.5-8.1h-2.6h-17.5h-15.3h-9.9
			c-3.6,0-6.7,2.5-7.5,6L246,256.8c-1.6,7.7-12.6,8.1-14.7,0.5l-34.5-121.5c-0.9-3.3-3.9-5.5-7.4-5.5h-20c-3.4,0-6.4,2.2-7.4,5.5
			l-34.5,121.5c-2.1,7.6-13.1,7.2-14.7-0.5L86.6,136.2c-0.8-3.5-3.9-6-7.4-6H33.7c-4.9,0-8.5,4.6-7.4,9.3l56.4,236
			c0.8,3.4,3.9,5.8,7.4,5.8h46.4c3.4,0,6.4-2.3,7.4-5.6l28.2-104.6c2-7.5,12.6-7.5,14.6,0l28.2,104.6c0.7,2.6,2.7,4.6,5.3,5.3
			c0.7,0.2,1.4,0.4,2.1,0.4h25.4h21.3C272.3,381.4,275.4,379,276.2,375.6z"/>
	</g>
</g>
</svg>
