<?xml version="1.0" encoding="utf-8"?>
<!-- Generator: Adobe Illustrator 24.3.0, SVG Export Plug-In . SVG Version: 6.00 Build 0)  -->
<svg version="1.1" id="Layer_1" xmlns="http://www.w3.org/2000/svg" xmlns:xlink="http://www.w3.org/1999/xlink" x="0px" y="0px"
	 viewBox="0 0 400 400" style="enable-background:new 0 0 400 400;" xml:space="preserve">
<style type="text/css">
	.st0{fill:#BC2041;}
	.st1{fill:#CCCCCC;}
</style>
<path class="st0" d="M395.8,297.2L333.5,202c-1.4-2.1-1.4-4.7-0.2-6.9l55-92.9c2.6-4.3-0.6-9.8-5.6-9.8h-40.9
	c-2.3,0-4.4,1.2-5.6,3.2l-58,99.3c-1.2,2.1-1.2,4.6,0.1,6.7l62.3,102.6c1.2,1.9,3.3,3.1,5.6,3.1h44.4
	C395.6,307.3,398.7,301.6,395.8,297.2z"/>
<path class="st0" d="M167.7,307.3h3.6c-0.6,0-1.2-0.1-1.8-0.3C168.9,307.2,168.3,307.3,167.7,307.3z"/>
<path class="st0" d="M265.6,100.4l-48.3,201.9c-0.7,2.9-3.3,5-6.3,5h48.5c3,0,5.6-2.1,6.3-5V100.4c0-0.4,0-0.7-0.1-1.1
	C265.7,99.7,265.7,100,265.6,100.4z"/>
<path class="st1" d="M217.3,302.3l48.3-201.9c0.1-0.4,0.1-0.7,0.1-1.1c0.2-3.7-2.6-6.9-6.4-6.9h-2.2h-15H229h-8.5
	c-3.1,0-5.7,2.1-6.4,5.1l-22.6,103.2c-1.4,6.6-10.8,6.9-12.6,0.4l-29.5-104c-0.8-2.8-3.3-4.7-6.3-4.7H126c-2.9,0-5.5,1.9-6.3,4.7
	l-29.5,104c-1.8,6.5-11.2,6.2-12.6-0.4L55.1,97.5c-0.7-3-3.3-5.1-6.3-5.1h-39c-4.2,0-7.3,3.9-6.3,8l48.3,201.9c0.7,2.9,3.3,5,6.3,5
	h39.7c2.9,0,5.5-2,6.3-4.8l24.1-89.5c1.7-6.4,10.8-6.4,12.5,0l24.1,89.5c0.6,2.2,2.3,3.9,4.5,4.5c0.6,0.2,1.2,0.3,1.8,0.3h21.7H211
	C214,307.3,216.6,305.2,217.3,302.3z"/>
</svg>
