<svg xmlns="http://www.w3.org/2000/svg" viewBox="0 0 466 82.27"><defs><style>.cls-1{fill:#434343;}.cls-2{fill:#bc2041;}</style></defs><g id="Layer_2" data-name="Layer 2"><g id="Layer_1-2" data-name="Layer 1"><path class="cls-1" d="M219.52,13.76,206.77,68.35H195.9L187,32.77l-9,35.58H167.12L154.37,13.76h10.09l8.45,38.4L183,13.76h8l10,38.4,8.44-38.4Z"/><path class="cls-1" d="M258.31,68.35H221.39V13.76h36.92v9.7H231.25v12.2h23.61v9.23H231.25V58.65h27.06Z"/><path class="cls-1" d="M284.11,68.35h-21V13.76h19.71c10.4,0,18.69,4.38,18.69,15.8a12.91,12.91,0,0,1-4.69,10.17c4.61,2.66,6.65,7.43,6.65,12.28C303.43,64,295,68.35,284.11,68.35Zm-1.17-45.28h-10V36.36H283c4.77,0,8.83-1,8.83-6.72S287.63,23.07,282.94,23.07Zm1.17,22H272.93V59h11.18c5,0,9.46-.86,9.46-7S289.12,45,284.11,45Z"/><path class="cls-2" d="M323.37,68.35H307.65V13.76h15.72c21.66,0,23,9.07,23,27.3S345,68.35,323.37,68.35Zm17.12-45.2C338,19,333,17.2,323.68,17.2H311.24V64.83h12.44c9.31,0,14.31-1.8,16.81-6,2.66-4.3,2.35-11.89,2.35-17.75S343.15,27.6,340.49,23.15Z"/><path class="cls-2" d="M386.55,68.35H352.06V13.76h34.49V17.2H355.66V38.4h27v3.28h-27V64.91h30.89Z"/><path class="cls-2" d="M408.6,69.05c-10.79,0-18.53-3.75-20.8-13.6l3.44-.63c2,8.52,9.78,10.95,17.36,10.95,7.12,0,15.49-3.83,15.49-12.36,0-17.67-34.41-7.51-34.41-26.67,0-9.38,8.44-13.53,17.2-13.53,8.45,0,14.71,2.9,18.46,10.25l-3,1.41c-3.36-6.18-8.53-8.22-15.41-8.22-5.94,0-13.68,2.27-13.68,10.09,0,15.49,34.41,5.87,34.41,26.67C427.61,63.58,418.38,69.05,408.6,69.05Z"/><path class="cls-2" d="M432.06,68.35V13.76h3.6V68.35Zm8.37-27.45L466,68.35h-4.69L436.05,41l23.7-27.22H464Z"/><path class="cls-2" d="M150.27,78.42,126.41,42a2.47,2.47,0,0,1-.06-2.63l21-35.58A2.48,2.48,0,0,0,145.24,0H129.58a2.49,2.49,0,0,0-2.15,1.23l-22.22,38a2.49,2.49,0,0,0,0,2.54l23.84,39.26a2.49,2.49,0,0,0,2.13,1.2h17A2.49,2.49,0,0,0,150.27,78.42Z"/><path class="cls-2" d="M62.91,82.27h1.38a2.38,2.38,0,0,1-.7-.11A2.2,2.2,0,0,1,62.91,82.27Z"/><path class="cls-2" d="M100.41,3.07,81.92,80.36a2.49,2.49,0,0,1-2.42,1.91H98.06a2.49,2.49,0,0,0,2.42-1.91V3.07c0-.15,0-.29,0-.42A3,3,0,0,1,100.41,3.07Z"/><path class="cls-1" d="M81.92,80.36,100.41,3.07a3,3,0,0,0,0-.42A2.49,2.49,0,0,0,98,0H83.11a2.48,2.48,0,0,0-2.43,2L72,41.46a2.49,2.49,0,0,1-4.83.14L55.92,1.81A2.48,2.48,0,0,0,53.53,0H47a2.5,2.5,0,0,0-2.4,1.81L33.27,41.61a2.49,2.49,0,0,1-4.82-.14L19.8,2a2.48,2.48,0,0,0-2.43-2H2.49A2.49,2.49,0,0,0,.07,3.07L18.56,80.36A2.49,2.49,0,0,0,21,82.27H36.19a2.51,2.51,0,0,0,2.41-1.84l9.24-34.28a2.49,2.49,0,0,1,4.8,0l9.24,34.28a2.48,2.48,0,0,0,1.71,1.73,2.38,2.38,0,0,0,.7.11H79.5A2.49,2.49,0,0,0,81.92,80.36Z"/></g></g></svg>