<?xml version="1.0" encoding="utf-8"?>
<!-- Generator: Adobe Illustrator 24.3.0, SVG Export Plug-In . SVG Version: 6.00 Build 0)  -->
<svg version="1.1" id="Layer_1" xmlns="http://www.w3.org/2000/svg" xmlns:xlink="http://www.w3.org/1999/xlink" x="0px" y="0px"
	 viewBox="0 0 466 82.3" style="enable-background:new 0 0 466 82.3;" xml:space="preserve">
<style type="text/css">
	.st0{fill:#757575;}
	.st1{fill:#BC2041;}
</style>
<g id="Layer_2_1_">
	<g id="Layer_1-2">
		<path class="st0" d="M219.5,13.8l-12.8,54.6h-10.9L187,32.8l-9,35.6h-10.9l-12.8-54.6h10.1l8.4,38.4L183,13.8h8l10,38.4l8.4-38.4
			L219.5,13.8z"/>
		<path class="st0" d="M258.3,68.3h-36.9V13.8h36.9v9.7h-27.1v12.2h23.6v9.2h-23.6v13.8h27.1V68.3z"/>
		<path class="st0" d="M284.1,68.3h-21V13.8h19.7c10.4,0,18.7,4.4,18.7,15.8c0.1,3.9-1.7,7.7-4.7,10.2c4.6,2.7,6.6,7.4,6.6,12.3
			C303.4,64,295,68.3,284.1,68.3z M282.9,23.1h-10v13.3H283c4.8,0,8.8-1,8.8-6.7S287.6,23.1,282.9,23.1L282.9,23.1z M284.1,45.1
			h-11.2V59h11.2c5,0,9.5-0.9,9.5-7S289.1,45,284.1,45.1L284.1,45.1z"/>
		<path class="st1" d="M323.4,68.3h-15.7V13.8h15.7c21.7,0,23,9.1,23,27.3S345,68.3,323.4,68.3z M340.5,23.1
			c-2.5-4.1-7.5-5.9-16.8-5.9h-12.4v47.6h12.4c9.3,0,14.3-1.8,16.8-6c2.7-4.3,2.4-11.9,2.4-17.8S343.1,27.6,340.5,23.1z"/>
		<path class="st1" d="M386.5,68.3h-34.5V13.8h34.5v3.4h-30.9v21.2h27v3.3h-27v23.2h30.9V68.3z"/>
		<path class="st1" d="M408.6,69.1c-10.8,0-18.5-3.8-20.8-13.6l3.4-0.6c2,8.5,9.8,11,17.4,11c7.1,0,15.5-3.8,15.5-12.4
			c0-17.7-34.4-7.5-34.4-26.7c0-9.4,8.4-13.5,17.2-13.5c8.5,0,14.7,2.9,18.5,10.2l-3,1.4c-3.4-6.2-8.5-8.2-15.4-8.2
			c-5.9,0-13.7,2.3-13.7,10.1c0,15.5,34.4,5.9,34.4,26.7C427.6,63.6,418.4,69.1,408.6,69.1z"/>
		<path class="st1" d="M432.1,68.3V13.8h3.6v54.6H432.1z M440.4,40.9L466,68.3h-4.7L436,41l23.7-27.2h4.2L440.4,40.9z"/>
		<path class="st1" d="M150.3,78.4L126.4,42c-0.5-0.8-0.5-1.8-0.1-2.6l21-35.6c0.7-1.2,0.4-2.7-0.8-3.4c-0.4-0.2-0.8-0.4-1.3-0.4
			h-15.7c-0.9,0-1.7,0.5-2.2,1.2l-22.2,38c-0.5,0.8-0.5,1.8,0,2.5L129.1,81c0.5,0.7,1.3,1.2,2.1,1.2h17c1.4,0,2.5-1.1,2.5-2.5
			C150.6,79.3,150.5,78.8,150.3,78.4z"/>
		<path class="st1" d="M62.9,82.3h1.4c-0.2,0-0.5,0-0.7-0.1C63.4,82.2,63.1,82.3,62.9,82.3z"/>
		<path class="st1" d="M100.4,3.1L81.9,80.4c-0.3,1.1-1.3,1.9-2.4,1.9h18.6c1.2,0,2.2-0.8,2.4-1.9L100.4,3.1
			c0.1-0.2,0.1-0.3,0.1-0.4C100.5,2.8,100.4,2.9,100.4,3.1z"/>
		<path class="st0" d="M81.9,80.4l18.5-77.3c0-0.1,0-0.3,0-0.4c0.1-1.4-1-2.6-2.3-2.6c0,0-0.1,0-0.1,0H83.1c-1.2,0-2.2,0.8-2.4,2
			L72,41.5c-0.3,1.3-1.6,2.2-3,1.9c-0.9-0.2-1.6-0.9-1.9-1.8L55.9,1.8C55.6,0.7,54.6,0,53.5,0H47c-1.1,0-2.1,0.7-2.4,1.8L33.3,41.6
			c-0.4,1.3-1.8,2.1-3.1,1.7c-0.9-0.3-1.5-1-1.7-1.8L19.8,2c-0.2-1.2-1.2-2-2.4-2H2.5C1.1,0,0,1.1,0,2.5c0,0.2,0,0.4,0.1,0.6
			l18.5,77.3c0.3,1.1,1.3,1.9,2.4,1.9h15.2c1.1,0,2.1-0.8,2.4-1.8l9.2-34.3c0.4-1.3,1.7-2.1,3.1-1.7c0.8,0.2,1.5,0.9,1.7,1.7
			l9.2,34.3c0.2,0.8,0.9,1.5,1.7,1.7c0.2,0.1,0.5,0.1,0.7,0.1h15.2C80.7,82.3,81.7,81.5,81.9,80.4z"/>
	</g>
</g>
</svg>
