<?xml version="1.0" encoding="utf-8"?>
<!-- Generator: Adobe Illustrator 24.3.0, SVG Export Plug-In . SVG Version: 6.00 Build 0)  -->
<svg version="1.1" id="Layer_1" xmlns="http://www.w3.org/2000/svg" xmlns:xlink="http://www.w3.org/1999/xlink" x="0px" y="0px"
	 viewBox="0 0 512 512" style="enable-background:new 0 0 512 512;" xml:space="preserve">
<style type="text/css">
	.st0{fill:#FFFFFF;}
</style>
<path class="st0" d="M490.9,424.7L370.4,304.2c-5.6-5.6-14-6.5-20.6-2.9c-1.9,1.1-4.4,0.8-5.9-0.8l-15.8-15.8
	c46.3-66.8,39.7-159.1-19.7-218.5c-66.9-66.9-175.3-66.9-242.2,0c-66.9,66.9-66.9,175.3,0,242.2c59.5,59.5,151.8,66,218.5,19.7
	l15.8,15.8c1.6,1.6,1.9,4,0.8,5.9c-3.6,6.6-2.7,15,2.9,20.6l120.5,120.5c6.7,6.7,17.7,6.7,24.4,0l41.8-41.8
	C497.7,442.4,497.7,431.5,490.9,424.7z M271.2,271.2c-46.3,46.3-121.5,46.3-167.8,0c-46.3-46.3-46.3-121.5,0-167.8
	c46.3-46.3,121.5-46.3,167.8,0S317.5,224.8,271.2,271.2z"/>
</svg>
